<svg xmlns="http://www.w3.org/2000/svg" width="64" height="64" viewBox="0 0 64 64" version="1.1"><path d="M 4.667 4.667 C 2.452 6.881, 4.522 10.269, 13.043 18.378 C 23.816 28.631, 29.202 30.927, 27.612 24.589 C 26.670 20.836, 10.268 4, 7.553 4 C 6.332 4, 5.033 4.300, 4.667 4.667 M 30 14.872 L 30 25.744 34.105 26.401 C 36.363 26.762, 39.513 27.731, 41.105 28.554 L 44 30.051 44 18.582 C 44 7.864, 43.854 7.011, 41.777 5.557 C 40.519 4.675, 37.483 4, 34.777 4 L 30 4 30 14.872 M 48.223 5.557 C 46.146 7.011, 46 7.864, 46 18.582 L 46 30.051 48.895 28.554 C 50.487 27.731, 53.637 26.762, 55.895 26.401 L 60 25.744 60 14.872 L 60 4 55.223 4 C 52.517 4, 49.481 4.675, 48.223 5.557 M 12 34 C 12 35.778, 12.667 36, 18 36 C 23.333 36, 24 35.778, 24 34 C 24 32.222, 23.333 32, 18 32 C 12.667 32, 12 32.222, 12 34 M 35.882 37.882 C 32.361 41.403, 32 42.252, 32 47 C 32 51.748, 32.361 52.597, 35.882 56.118 C 39.403 59.639, 40.252 60, 45 60 C 49.748 60, 50.597 59.639, 54.118 56.118 C 57.639 52.597, 58 51.748, 58 47 C 58 42.252, 57.639 41.403, 54.118 37.882 C 50.597 34.361, 49.748 34, 45 34 C 40.252 34, 39.403 34.361, 35.882 37.882 M 6 40 C 6 41.100, 6.398 42, 6.884 42 C 7.369 42, 8.079 45.038, 8.459 48.750 C 9.457 58.477, 9.951 60, 12.108 60 C 13.770 60, 14 59.209, 14 53.500 C 14 49.833, 14.436 47, 15 47 C 15.564 47, 16 49.833, 16 53.500 C 16 59.333, 16.205 60, 18 60 C 19.795 60, 20 59.333, 20 53.500 C 20 49.833, 20.436 47, 21 47 C 21.564 47, 22 49.833, 22 53.500 C 22 59.209, 22.230 60, 23.892 60 C 26.049 60, 26.543 58.477, 27.541 48.750 C 27.921 45.038, 28.631 42, 29.116 42 C 29.602 42, 30 41.100, 30 40 C 30 38.111, 29.333 38, 18 38 C 6.667 38, 6 38.111, 6 40 M 41.384 39.434 C 37.737 41.022, 35.589 45.822, 36.979 49.278 C 37.747 51.187, 37.882 50.972, 37.937 47.750 C 38.015 43.123, 40.861 40, 45 40 C 51.209 40, 54.324 47.676, 49.908 52.092 C 48.668 53.332, 47.038 53.982, 45.909 53.686 C 43.883 53.157, 42.508 54.395, 43.443 55.908 C 43.752 56.408, 45.755 55.971, 47.894 54.937 C 55.076 51.467, 55.372 42.307, 48.397 39.392 C 44.483 37.757, 45.248 37.753, 41.384 39.434" stroke="none" fill="#000000" fill-rule="evenodd"/><path d="" stroke="none" fill="#080404" fill-rule="evenodd"/><path d="" stroke="none" fill="#040404" fill-rule="evenodd"/></svg>